{"title":"The Music Never Stopped (2011) 1080p MKV AC3+DTS MultiSubs","uid":6960396,"size":8691780777,"categoryP":"video","categoryS":"hd___movies","magnet":"?xt=urn:btih:582fa3ac92ce2b96722300b2a903e6af6c7e929c&amp;dn=The+Music+Never+Stopped+%282011%29+1080p+MKV+AC3%2BDTS+MultiSubs&amp;tr=udp%3A%2F%2Ftracker.openbittorrent.com%3A80&amp;tr=udp%3A%2F%2Fopen.demonii.com%3A1337&amp;tr=udp%3A%2F%2Ftracker.coppersurfer.tk%3A6969&amp;tr=udp%3A%2F%2Fexodus.desync.com%3A6969","seeders":1,"leechers":0,"uploader":"NLUPPER002","files":-1,"time":1326740891,"description":"The Music Never Stopped (2011) 1080p MKV AC3+DTS MultiSubs\n.\n[IMG]http://img7.imageshack.us/img7/3088/calodaadj.jpg[/IMG]\n.\nVerenigde Staten\nDrama\n105 minuten\n\ngeregisseerd door Jim Kohlberg\nmet J.K. Simmons, Lou Taylor Pucci en Cara Seymour\n\nHet verhaal van een vader die worstelt met zijn gevoelens voor zijn vervreemde zoon Gabriel. Gabriel lijdt aan een hersentumor die het hem verhindert om nieuwe herinneringen te vormen. Nu er zich tussen Henry en Gabriel op emotioneel en fysiek gebied een afstand lijkt te ontstaan, besluit Henry zijn zoon te accepteren zoals hij is. Hij wil zijn diverse keuzes accepteren en een betere relatie met hem krijgen door middel van muziek.\n.  &lt;a href=&quot;\nhttp://www.moviemeter.nl/film/72792&quot; rel=&quot;nofollow&quot; target=&quot;_NEW&quot;&gt;\nhttp://www.moviemeter.nl/film/72792&lt;/a&gt;\n.\nPLOT\n.\nTale of a father who struggles to bond with his estranged son Gabriel, after Gabriel suffers from a brain tumor that prevents him from forming new memories... \n.  &lt;a href=&quot;\nhttp://www.imdb.com/title/tt1613062/&quot; rel=&quot;nofollow&quot; target=&quot;_NEW&quot;&gt;\nhttp://www.imdb.com/title/tt1613062/&lt;/a&gt;\n.\nINFO\n.\nGeneral\nFormat                           : Matroska\nFormat version                   : Version 2\nFile size                        : 8.09 GiB\nDuration                         : 1h 44mn\nOverall bit rate                 : 11.1 Mbps\nEncoded date                     : UTC 2012-01-16 18:01:21\nWriting application              : mkvmerge v5.2.1 ('A Far Off Place') built on Jan  2 2012 23:21:10\nWriting library                  : libebml v1.2.3 + libmatroska v1.3.0\n\nVideo\nID                               : 1\nFormat                           : AVC\nFormat/Info                      : Advanced Video Codec\nFormat profile                   : &lt;a class=&quot;__cf_email__&quot; href=&quot;/cdn-cgi/l/email-protection&quot; data-cfemail=&quot;8dc5e4eae5cdc1b9a3bd&quot;&gt;[email&amp;#160;protected]&lt;/a&gt;&lt;script cf-hash='f9e31' type=&quot;text/javascript&quot;&gt;\n/* &lt;![CDATA[ */!function(){try{var t=&quot;currentScript&quot;in document?document.currentScript:function(){for(var t=document.getElementsByTagName(&quot;script&quot;),e=t.length;e--;)if(t[e].getAttribute(&quot;cf-hash&quot;))return t[e]}();if(t&amp;&amp;t.previousSibling){var e,r,n,i,c=t.previousSibling,a=c.getAttribute(&quot;data-cfemail&quot;);if(a){for(e=&quot;&quot;,r=parseInt(a.substr(0,2),16),n=2;a.length-n;n+=2)i=parseInt(a.substr(n,2),16)^r,e+=String.fromCharCode(i);e=document.createTextNode(e),c.parentNode.replaceChild(e,c)}}}catch(u){}}();/* ]]&gt; */&lt;/script&gt;\nFormat settings, CABAC           : Yes\nFormat settings, ReFrames        : 4 frames\nMuxing mode                      : Header stripping\nCodec ID                         : V_MPEG4/ISO/AVC\nDuration                         : 1h 44mn\nBit rate                         : 8 965 Kbps\nWidth                            : 1 920 pixels\nHeight                           : 808 pixels\nDisplay aspect ratio             : 2.40:1\nFrame rate                       : 23.976 fps\nColor space                      : YUV\nChroma subsampling               : 4:2:0\nBit depth                        : 8 bits\nScan type                        : Progressive\nBits/(Pixel*Frame)               : 0.241\nStream size                      : 6.36 GiB (79%)\nWriting library                  : x264 core 120 r2120 0c7dab9\nEncoding settings                : cabac=1 / ref=4 / deblock=1:0:0 / analyse=0x3:0x133 / me=hex / subme=7 / psy=1 / psy_rd=1.00:0.00 / mixed_ref=1 / me_range=16 / chroma_me=1 / trellis=1 / 8x8dct=1 / cqm=0 / deadzone=21,11 / fast_pskip=0 / chroma_qp_offset=-2 / threads=12 / sliced_threads=0 / nr=0 / decimate=1 / interlaced=0 / bluray_compat=0 / constrained_intra=0 / bframes=3 / b_pyramid=2 / b_adapt=1 / b_bias=0 / direct=1 / weightb=1 / open_gop=0 / weightp=2 / keyint=250 / keyint_min=23 / scenecut=40 / intra_refresh=0 / rc_lookahead=40 / rc=2pass / mbtree=1 / bitrate=8965 / ratetol=1.0 / qcomp=0.60 / qpmin=0 / qpmax=69 / qpstep=4 / cplxblur=20.0 / qblur=0.5 / ip_ratio=1.40 / aq=1:1.00\nDefault                          : Yes\nForced                           : No\n\nAudio #1\nID                               : 2\nFormat                           : DTS\nFormat/Info                      : Digital Theater Systems\nCodec ID                         : A_DTS\nDuration                         : 1h 44mn\nBit rate mode                    : Constant\nBit rate                         : 1 510 Kbps\nChannel(s)                       : 6 channels\nChannel positions                : Front: L C R, Side: L R, LFE\nSampling rate                    : 48.0 KHz\nBit depth                        : 24 bits\nCompression mode                 : Lossy\nStream size                      : 1.10 GiB (14%)\nTitle                            : DTS\nLanguage                         : English\nDefault                          : Yes\nForced                           : No\n\nAudio #2\nID                               : 3\nFormat                           : AC-3\nFormat/Info                      : Audio Coding 3\nMode extension                   : CM (complete main)\nCodec ID                         : A_AC3\nDuration                         : 1h 44mn\nBit rate mode                    : Constant\nBit rate                         : 640 Kbps\nChannel(s)                       : 6 channels\nChannel positions                : Front: L C R, Side: L R, LFE\nSampling rate                    : 48.0 KHz\nBit depth                        : 16 bits\nCompression mode                 : Lossy\nStream size                      : 479 MiB (6%)\nTitle                            : AC3\nLanguage                         : English\nDefault                          : No\nForced                           : No\n\nText #1\nID                               : 4\nFormat                           : UTF-8\nCodec ID                         : S_TEXT/UTF8\nCodec ID/Info                    : UTF-8 Plain Text\nLanguage                         : Dutch\nDefault                          : Yes\nForced                           : No\n\nText #2\nID                               : 5\nFormat                           : UTF-8\nCodec ID                         : S_TEXT/UTF8\nCodec ID/Info                    : UTF-8 Plain Text\nTitle                            : Brazilian\nDefault                          : No\nForced                           : No\n\nText #3\nID                               : 6\nFormat                           : UTF-8\nCodec ID                         : S_TEXT/UTF8\nCodec ID/Info                    : UTF-8 Plain Text\nLanguage                         : English\nDefault                          : No\nForced                           : No\n\nText #4\nID                               : 7\nFormat                           : UTF-8\nCodec ID                         : S_TEXT/UTF8\nCodec ID/Info                    : UTF-8 Plain Text\nLanguage                         : Italian\nDefault                          : No\nForced                           : No\n\nText #5\nID                               : 8\nFormat                           : UTF-8\nCodec ID                         : S_TEXT/UTF8\nCodec ID/Info                    : UTF-8 Plain Text\nLanguage                         : Romanian\nDefault                          : No\nForced                           : No\n\nMenu\n00:00:00.000                     : en:00:00:00.000\n00:09:17.599                     : en:00:09:17.599\n00:16:56.641                     : en:00:16:56.641\n00:26:44.603                     : en:00:26:44.603\n00:35:19.576                     : en:00:35:19.576\n00:45:16.589                     : en:00:45:16.589\n00:55:57.604                     : en:00:55:57.604\n01:04:34.579                     : en:01:04:34.579\n01:13:27.570                     : en:01:13:27.570\n01:22:25.941                     : en:01:22:25.941\n01:26:42.572                     : en:01:26:42.572\n01:39:40.516                     : en:01:39:40.516\n\n\n","torrent":{"xt":"urn:btih:582fa3ac92ce2b96722300b2a903e6af6c7e929c","amp;dn":"The+Music+Never+Stopped+%282011%29+1080p+MKV+AC3%2BDTS+MultiSubs","amp;tr":["udp%3A%2F%2Ftracker.openbittorrent.com%3A80","udp%3A%2F%2Fopen.demonii.com%3A1337","udp%3A%2F%2Ftracker.coppersurfer.tk%3A6969","udp%3A%2F%2Fexodus.desync.com%3A6969"],"infoHash":"582fa3ac92ce2b96722300b2a903e6af6c7e929c","infoHashBuffer":{"type":"Buffer","data":[88,47,163,172,146,206,43,150,114,35,0,178,169,3,230,175,108,126,146,156]},"announce":[],"urlList":[]}}